<?xml version="1.0" encoding="utf-8"?>
<!-- Generator: Adobe Illustrator 18.1.0, SVG Export Plug-In . SVG Version: 6.00 Build 0)  -->
<!DOCTYPE svg PUBLIC "-//W3C//DTD SVG 1.1//EN" "http://www.w3.org/Graphics/SVG/1.1/DTD/svg11.dtd">
<svg version="1.1" id="Layer_1" xmlns="http://www.w3.org/2000/svg" xmlns:xlink="http://www.w3.org/1999/xlink" x="0px" y="0px"
	 viewBox="0 0 207.5 76.4" enable-background="new 0 0 207.5 76.4" xml:space="preserve">
<g>
	<rect x="98" y="22" fill="#CB3837" width="11" height="33"/>
	<path fill="#CB3837" d="M142,0H131H76.4H65.5H0v66h33v10h32.5h10.9H142V66h22v10h43V0H142z M44,66V55H11V11h22v33h11V11h22v55H44z
		 M76,66V11h55v55H76z M197,66h-22V55h-33V11h22v33h11V11h22V66z"/>
</g>
<g>
	<polygon fill="#FFFFFF" points="142,11 142,55 175,55 175,66 197,66 197,11 175,11 175,44 164,44 164,11 	"/>
	<polygon fill="#FFFFFF" points="66,66 66,11 44,11 44,44 33,44 33,11 11,11 11,55 44,55 44,66 	"/>
	<path fill="#FFFFFF" d="M131,11H76v55h55V11z M109,55H98V22h11V55z"/>
</g>
</svg>
