<?xml version="1.0" encoding="utf-8"?>
<!-- Generator: Adobe Illustrator 18.0.0, SVG Export Plug-In . SVG Version: 6.00 Build 0)  -->
<!DOCTYPE svg PUBLIC "-//W3C//DTD SVG 1.1//EN" "http://www.w3.org/Graphics/SVG/1.1/DTD/svg11.dtd">
<svg version="1.1" id="Layer_1" xmlns="http://www.w3.org/2000/svg" xmlns:xlink="http://www.w3.org/1999/xlink" x="0px" y="0px"
	 viewBox="0 0 278.3 123.7" enable-background="new 0 0 278.3 123.7" xml:space="preserve">
<g>
	<path fill="#D32E2D" d="M92.8,15.5v92.8H0V15.5H92.8z M15.5,30.9v61.9h30.9V46.4h15.5v46.4h15.5V30.9H15.5z"/>
	<path fill="#D32E2D" d="M170.1,15.5v92.8h-30.9v15.5H77.3V15.5H170.1z M92.8,30.9v77.3h30.9V92.8h30.9V30.9H92.8z M123.7,46.4h15.5
		v30.9h-15.5V46.4z"/>
	<path fill="#D32E2D" d="M154.6,108.2V15.5h123.7v92.8H154.6z M170.1,30.9v61.9H201V46.4h15.5v46.4H232V46.4h15.5v46.4h15.5V30.9
		H170.1z"/>
</g>
</svg>
